<?xml version="1.0" standalone="no"?>
<!DOCTYPE svg PUBLIC "-//W3C//DTD SVG 20010904//EN"
 "http://www.w3.org/TR/2001/REC-SVG-20010904/DTD/svg10.dtd">
<svg version="1.0" xmlns="http://www.w3.org/2000/svg"
 width="853.000000pt" height="1280.000000pt" viewBox="0 0 853.000000 1280.000000"
 preserveAspectRatio="xMidYMid meet">

<g transform="translate(0.000000,1280.000000) scale(0.100000,-0.100000)"
fill="#000000" stroke="none">
<path d="M0 6859 c0 -5657 1 -5940 17 -5924 10 9 35 32 56 53 32 31 40 35 56
25 26 -16 72 -7 91 18 21 27 34 11 15 -18 -9 -13 -24 -63 -35 -111 -21 -99
-67 -209 -101 -241 -15 -14 -36 -21 -60 -21 l-38 0 0 -134 c0 -125 1 -134 19
-139 21 -6 25 -28 21 -122 -1 -27 5 -71 13 -96 16 -46 14 -94 -6 -131 -8 -17
197 -18 4237 -18 l4245 0 0 6400 0 6400 -4265 0 -4265 0 0 -5941z m4497 4084
c7 -18 18 -33 23 -33 5 0 14 -17 19 -38 14 -50 30 -69 65 -78 26 -6 28 -5 23
12 -5 14 -2 12 13 -6 l20 -25 1 35 c2 75 4 85 17 83 14 -3 16 13 3 22 -6 3 -9
15 -8 26 1 16 4 17 12 7 12 -15 45 -20 45 -7 0 5 5 9 11 9 7 0 9 -9 5 -24 -8
-33 31 -45 43 -13 8 21 8 21 16 -3 5 -14 8 -38 8 -55 -1 -16 1 -22 4 -12 6 21
23 23 23 2 0 -8 5 -15 10 -15 6 0 10 -5 10 -11 0 -5 11 -27 25 -47 14 -20 25
-31 25 -24 0 9 10 8 40 -4 22 -9 47 -14 55 -11 8 4 17 2 20 -3 9 -15 28 -12
22 3 -4 10 2 13 19 9 20 -3 24 0 24 18 0 15 5 20 14 17 17 -7 39 16 28 28 -4
5 -1 5 6 1 6 -4 12 -14 12 -23 0 -13 2 -13 17 -2 15 13 15 12 5 -7 -9 -16 -8
-21 3 -21 8 0 11 5 8 10 -4 6 1 8 11 4 44 -17 69 -20 61 -7 -5 9 -2 10 15 5
16 -5 20 -4 15 5 -4 7 5 4 21 -6 l29 -19 -29 38 -29 38 27 -11 c34 -12 36 -12
36 0 0 6 -8 10 -17 10 -15 0 -15 2 -4 9 8 5 21 7 30 4 28 -10 81 -54 81 -67 0
-7 7 -21 15 -32 15 -19 15 -19 9 1 l-7 20 16 -20 c9 -11 17 -26 17 -32 0 -12
19 -17 47 -14 28 4 69 -96 92 -223 6 -33 17 -69 24 -80 15 -23 43 -143 38
-165 -1 -7 2 -10 7 -7 5 3 10 0 9 -7 0 -6 1 -23 2 -37 2 -40 21 -3 21 43 0 20
3 37 8 37 4 0 7 26 7 57 0 36 4 58 13 61 6 2 12 10 12 18 0 8 5 14 11 14 5 0
7 4 4 10 -3 5 0 7 8 4 9 -3 28 13 52 45 31 43 42 51 69 51 43 0 69 -21 97 -77
47 -99 19 -334 -61 -509 -32 -70 -44 -86 -82 -108 -31 -18 -59 -26 -91 -26
-25 0 -48 -3 -50 -7 -3 -5 -8 -119 -12 -255 l-8 -248 24 0 c40 -1 68 -35 108
-132 21 -51 53 -121 71 -156 30 -57 32 -65 22 -100 -7 -20 -43 -82 -81 -137
-38 -55 -106 -158 -152 -230 -45 -71 -113 -177 -149 -235 -69 -108 -230 -385
-230 -396 0 -3 -56 -118 -125 -255 -69 -137 -164 -332 -211 -432 -47 -100 -92
-189 -101 -197 -15 -13 -16 -13 -5 1 6 8 11 31 10 51 -1 19 3 41 7 48 4 7 9
23 11 34 3 22 3 23 28 128 23 99 35 184 41 284 10 172 17 218 36 243 10 13 19
31 19 40 -1 27 -176 354 -211 394 -19 20 -42 37 -51 37 -36 0 -130 -54 -167
-96 -47 -53 -61 -105 -61 -216 l1 -83 21 40 c11 22 27 48 36 58 15 17 17 15
29 -30 19 -68 33 -185 23 -203 -4 -8 -10 -32 -14 -52 -4 -21 -29 -88 -55 -150
-96 -224 -146 -394 -195 -658 -69 -377 -79 -425 -88 -435 -12 -12 0 504 13
585 5 30 9 82 9 115 0 33 7 123 15 200 8 77 20 201 25 275 6 74 12 144 15 155
2 12 9 63 15 114 6 56 26 142 51 216 37 117 39 127 30 187 -5 35 -15 150 -22
256 l-12 192 32 65 c18 36 36 65 41 65 17 0 24 -72 10 -104 -27 -65 -24 -107
11 -161 42 -63 292 -320 297 -305 4 10 -73 93 -181 200 -12 12 -15 20 -8 25 6
3 11 11 11 16 0 6 -4 8 -9 5 -4 -3 -6 5 -4 17 3 13 -2 29 -11 36 -8 7 -12 19
-9 27 3 8 1 14 -5 14 -12 0 -23 25 -28 64 -2 17 -7 32 -12 35 -4 3 -7 17 -7
31 0 14 -6 36 -14 50 -12 23 -12 23 2 7 14 -17 15 -17 13 7 0 13 -4 22 -7 20
-11 -6 -17 20 -13 52 4 24 3 26 -5 9 -10 -20 -10 -20 -10 1 -1 11 -7 26 -13
33 -11 12 -10 13 6 7 18 -6 18 -5 2 19 -9 14 -12 25 -7 25 21 0 107 -69 121
-97 9 -17 21 -28 29 -25 9 3 11 -1 7 -14 -6 -21 25 -64 46 -63 10 0 10 2 0 6
-10 4 -10 8 -1 20 10 11 9 20 -5 45 -26 44 -12 51 70 37 86 -15 276 -6 363 17
35 9 92 33 127 53 87 49 236 188 264 246 12 25 27 45 33 46 8 0 7 3 -1 6 -11
4 -10 9 2 22 18 20 34 111 19 111 -5 0 -15 -11 -21 -25 -6 -14 -16 -25 -22
-25 -6 0 -9 -4 -5 -9 3 -5 -3 -16 -12 -23 -10 -7 -27 -30 -38 -52 -11 -21 -30
-45 -42 -53 -13 -9 -23 -22 -23 -31 0 -8 -3 -12 -6 -9 -4 4 -28 -11 -53 -32
-60 -50 -119 -83 -134 -75 -7 4 -9 4 -5 -1 10 -10 -37 -35 -66 -35 -17 0 -18
-2 -6 -11 11 -7 6 -8 -19 -4 -25 5 -32 4 -26 -5 6 -9 1 -10 -16 -5 -37 12 -78
8 -95 -9 -8 -9 -20 -16 -25 -16 -17 0 -24 -2 -44 -13 -21 -12 -206 -17 -199
-5 2 4 -9 3 -26 -2 -16 -5 -32 -5 -35 0 -3 4 -23 11 -45 15 -22 4 -40 10 -40
15 0 4 -10 11 -22 14 -26 7 -98 71 -98 86 0 6 -3 9 -7 8 -9 -3 -93 73 -93 84
0 10 -49 58 -59 58 -5 0 -12 11 -15 25 -4 14 -13 25 -21 25 -8 0 -15 7 -15 15
0 13 -36 73 -62 105 -19 22 -58 110 -58 130 0 11 -4 21 -9 24 -11 7 -13 18
-62 306 -5 30 -12 106 -15 167 -4 62 -10 110 -15 107 -5 -3 -9 8 -9 25 0 16 5
33 10 36 6 3 10 21 10 39 0 56 31 137 57 149 12 5 20 14 17 19 -3 4 2 11 11
14 12 5 13 9 5 14 -8 5 -7 11 4 22 8 9 12 19 8 23 -4 4 4 2 16 -4 13 -7 26
-10 30 -7 3 3 -1 6 -9 6 -11 0 -11 2 1 10 8 5 27 10 42 10 14 0 28 5 30 12 4
10 19 10 69 2 49 -9 66 -8 71 1 4 7 23 11 43 9 32 -2 35 -1 23 13 -12 15 -11
15 11 3 21 -11 23 -10 18 5 -4 9 -7 20 -7 25 0 13 -77 40 -113 40 -18 0 -39 6
-46 13 -8 7 -11 7 -8 1 4 -7 -17 -3 -48 8 -59 22 -75 43 -48 65 13 10 15 16 6
19 -7 3 -13 10 -13 15 0 6 5 7 10 4 6 -4 16 -2 23 3 7 6 14 10 17 10 3 -1 15
2 28 6 19 7 22 12 16 41 -6 33 8 56 22 34 4 -8 3 -9 -4 -5 -7 4 -12 3 -12 -2
0 -5 14 -9 30 -9 20 0 26 3 18 9 -7 4 -9 8 -4 8 4 0 -2 9 -15 21 -17 15 -19
19 -6 15 11 -3 17 0 17 9 0 8 5 15 10 15 6 0 10 11 10 25 0 27 9 32 28 13 17
-17 27 -2 12 17 -11 13 -10 14 3 10 8 -4 18 -2 21 4 13 21 49 6 63 -26z m123
-89 c0 -8 -19 -13 -24 -6 -3 5 1 9 9 9 8 0 15 -2 15 -3z m-725 -523 c-3 -17
-2 -32 4 -36 6 -3 11 2 12 12 1 26 26 -34 32 -78 3 -18 6 -34 7 -34 1 0 4 -13
6 -30 3 -16 10 -32 16 -36 5 -3 9 -8 8 -10 -1 -2 1 -11 3 -19 3 -8 11 -55 18
-105 6 -49 15 -94 19 -100 4 -5 13 -35 19 -65 6 -30 17 -79 23 -108 6 -28 8
-55 5 -58 -4 -4 -22 5 -41 19 -25 20 -41 46 -61 99 -15 40 -31 82 -36 93 -5
11 -13 43 -19 70 -6 28 -20 77 -31 110 -29 85 -26 256 5 292 16 18 18 16 11
-16z m651 -1637 c3 -30 1 -34 -11 -24 -15 13 -20 51 -8 63 10 11 15 0 19 -39z
m-4017 -2266 c53 -32 131 -101 131 -115 0 -7 -8 -13 -17 -13 -13 0 -11 -4 7
-13 49 -26 70 -42 70 -54 0 -6 15 -22 33 -34 17 -13 34 -27 35 -31 2 -5 7 -6
10 -4 12 7 87 -49 87 -64 0 -28 -51 -23 -87 7 -18 16 -50 37 -71 48 -20 11
-48 30 -62 42 -13 13 -27 23 -30 23 -17 0 -50 49 -51 76 -1 31 -20 54 -99 116
-51 40 -16 53 44 16z m1951 -756 c21 -17 21 -18 3 -34 -35 -30 -56 -30 -96 3
-20 17 -37 35 -37 40 0 17 106 10 130 -9z m-1397 -551 c12 -2 8 -29 -5 -33
-19 -7 -38 2 -38 17 0 7 -8 16 -17 18 -15 4 31 2 60 -2z m3104 -238 c-3 -10
-5 -4 -5 12 0 17 2 24 5 18 2 -7 2 -21 0 -30z m200 -15 c-3 -7 -5 -2 -5 12 0
14 2 19 5 13 2 -7 2 -19 0 -25z m-3427 -232 c0 -21 -20 -30 -33 -17 -9 9 -8
14 3 21 21 14 30 12 30 -4z m1572 -1021 c10 -21 9 -29 -5 -43 -16 -15 -18 -15
-34 0 -14 14 -15 22 -5 43 6 14 16 25 22 25 6 0 16 -11 22 -25z m1715 -97 c-3
-7 -5 -2 -5 12 0 14 2 19 5 13 2 -7 2 -19 0 -25z m-187 -31 c0 -18 -2 -19 -10
-7 -13 20 -13 43 0 35 6 -3 10 -16 10 -28z m-1250 -584 c0 -14 -15 -30 -38
-42 -18 -10 -23 -9 -28 4 -3 8 -15 15 -25 15 -10 0 -19 5 -19 11 0 6 8 8 18 5
9 -3 24 -1 32 4 18 11 60 13 60 3z m-326 -15 c19 7 70 11 116 10 103 -3 116
-17 63 -71 -40 -42 -45 -43 -68 -21 -14 15 -14 17 1 28 12 10 14 17 7 30 -9
16 -11 15 -27 -8 -20 -31 -45 -33 -68 -7 -12 15 -25 18 -45 14 -39 -8 -64 -6
-77 7 -17 17 13 30 41 17 18 -8 33 -7 57 1z m-37 -64 c-9 -9 -28 6 -21 18 4 6
10 6 17 -1 6 -6 8 -13 4 -17z m77 -20 c9 -35 0 -42 -31 -24 -44 25 -39 44 13
49 7 0 15 -11 18 -25z m216 -39 c0 -16 -30 -75 -38 -75 -5 0 -21 -11 -36 -25
-23 -22 -39 -13 -17 11 5 5 14 26 20 46 7 20 20 39 29 41 26 7 42 8 42 2z
m-285 -45 c14 -27 14 -30 -4 -40 -45 -24 -66 2 -41 51 15 27 27 24 45 -11z
m345 -40 c0 -5 -5 -10 -12 -10 -6 0 -19 -7 -28 -15 -24 -21 -74 -35 -91 -24
-12 7 -11 9 1 10 8 1 20 1 26 0 7 -1 14 7 17 18 4 18 17 23 75 30 6 0 12 -3
12 -9z m200 -50 c0 -5 -7 -10 -16 -10 -8 0 -12 5 -9 10 3 6 10 10 16 10 5 0 9
-4 9 -10z m-353 -32 c-3 -8 -6 -5 -6 6 -1 11 2 17 5 13 3 -3 4 -12 1 -19z
m-1449 -9 c2 -11 -8 -20 -27 -27 -18 -6 -31 -18 -31 -27 0 -23 -54 -75 -79
-75 -11 0 -32 5 -46 10 l-26 10 21 30 c13 18 30 30 44 30 12 0 31 8 42 18 56
51 96 63 102 31z m1097 2 c7 -12 -12 -24 -25 -16 -11 7 -4 25 10 25 5 0 11 -4
15 -9z m1672 3 c14 -4 30 -26 47 -64 14 -31 26 -61 26 -66 1 -5 9 -27 20 -49
11 -22 19 -45 20 -51 0 -6 9 -19 20 -29 26 -23 26 -39 1 -25 -24 13 -91 13
-91 1 0 -11 24 -36 48 -51 15 -8 15 -11 2 -20 -8 -5 -26 -10 -39 -10 -13 0
-22 -2 -20 -4 3 -3 56 -1 119 4 97 7 117 6 126 -6 7 -8 10 -24 7 -34 -6 -21 7
-26 23 -10 5 5 19 11 31 13 13 2 26 7 30 12 5 4 1 5 -7 1 -8 -4 -6 0 4 8 18
15 20 13 37 -25 10 -22 24 -59 30 -82 6 -23 17 -49 26 -59 12 -13 12 -20 2
-36 -11 -17 -11 -25 0 -44 7 -13 13 -47 14 -74 2 -41 9 -58 40 -96 30 -37 45
-47 79 -52 24 -4 50 -14 60 -23 10 -9 29 -17 44 -19 14 -1 32 -10 39 -20 13
-18 10 -44 -5 -44 -14 0 -39 -60 -33 -77 4 -9 2 -14 -3 -11 -5 4 -10 -10 -12
-29 -6 -81 -141 -253 -227 -289 -43 -18 -245 -216 -245 -241 0 -29 -38 -101
-59 -112 -34 -19 -102 4 -122 40 -14 27 -4 101 21 152 l19 38 -31 19 c-37 22
-58 16 -58 -16 0 -13 -9 -33 -19 -43 -11 -11 -17 -22 -14 -25 3 -3 -6 -10 -21
-16 -34 -13 -46 -12 -23 1 23 14 21 28 -5 38 -31 12 -45 1 -23 -16 14 -9 15
-13 4 -13 -24 0 -42 17 -34 30 5 9 4 11 -3 6 -18 -11 -25 39 -12 81 16 49 28
63 47 56 28 -11 9 21 -23 37 -71 36 -104 60 -104 76 0 9 -9 29 -21 45 -11 16
-21 38 -22 48 0 11 -4 18 -8 15 -4 -2 -11 6 -14 18 -4 13 -23 42 -41 65 -21
26 -34 52 -34 70 0 49 29 119 68 165 43 50 48 59 100 155 32 59 37 75 26 84
-10 8 -15 5 -20 -15 -3 -15 -18 -35 -31 -46 -14 -11 -22 -20 -18 -20 4 0 -9
-11 -29 -25 -20 -14 -39 -25 -43 -25 -9 0 -65 -50 -56 -50 16 -1 -73 -30 -92
-30 -34 0 -70 24 -67 45 2 10 -4 32 -13 50 -14 26 -22 30 -45 27 -37 -5 -60
28 -60 86 0 39 -2 44 -20 39 -25 -6 -25 -3 0 32 17 22 19 32 11 54 -6 15 -10
31 -9 35 1 4 -2 15 -7 25 -5 13 3 30 34 65 23 26 66 77 96 113 30 37 71 81 92
98 43 35 168 102 227 121 73 23 199 36 243 24z m-1727 -14 c0 -5 -2 -10 -4
-10 -3 0 -8 5 -11 10 -3 6 -1 10 4 10 6 0 11 -4 11 -10z m2634 -142 c67 -62
173 -158 236 -213 63 -55 140 -123 170 -150 30 -28 92 -83 137 -122 l81 -71
-21 -20 c-65 -61 -167 -55 -249 14 -15 12 -41 25 -58 29 -23 5 -29 11 -25 24
7 23 -27 54 -49 45 -9 -3 -16 -10 -16 -15 0 -4 -6 -6 -14 -3 -18 7 -47 78 -40
97 6 17 -118 152 -160 174 -17 9 -34 20 -37 25 -4 5 -22 10 -40 11 -21 1 -41
10 -52 24 -10 12 -26 24 -36 28 -17 5 -48 59 -55 95 -2 8 -7 24 -11 34 -6 15
-4 23 10 30 10 6 35 26 54 43 20 18 40 33 45 33 5 0 63 -51 130 -112z m-3564
72 c0 -5 -4 -10 -9 -10 -6 0 -13 5 -16 10 -3 6 1 10 9 10 9 0 16 -4 16 -10z
m506 -69 c-3 -4 7 -14 21 -20 20 -9 23 -15 14 -21 -11 -6 -10 -10 4 -17 15 -9
16 -11 1 -16 -9 -4 -16 -2 -16 3 0 6 -8 10 -19 10 -10 0 -24 7 -31 15 -10 13
-10 19 5 35 18 20 30 27 21 11z m252 -240 c-6 -11 -21 -22 -32 -25 -12 -2 -38
-9 -58 -14 -30 -8 -38 -7 -38 4 0 16 75 52 113 53 24 1 26 -1 15 -18z m2482
-11 c0 -5 -4 -10 -10 -10 -5 0 -10 5 -10 10 0 6 5 10 10 10 6 0 10 -4 10 -10z
m234 -55 c-4 -8 -10 -13 -15 -10 -4 3 -6 12 -3 20 4 8 10 13 15 10 4 -3 6 -12
3 -20z m-169 -14 c7 -12 -12 -24 -25 -16 -11 7 -4 25 10 25 5 0 11 -4 15 -9z
m107 -16 l18 -24 -68 -50 -67 -51 -17 23 c-10 12 -18 26 -18 31 0 15 81 85
104 89 11 2 23 5 26 5 3 1 13 -9 22 -23z m143 -15 c3 -6 -1 -13 -10 -16 -19
-8 -30 0 -20 15 8 14 22 14 30 1z m-310 -40 c3 -5 1 -10 -4 -10 -6 0 -11 5
-11 10 0 6 2 10 4 10 3 0 8 -4 11 -10z m340 -50 c-3 -5 -12 -10 -18 -10 -7 0
-6 4 3 10 19 12 23 12 15 0z m-95 -26 c0 -2 -18 -4 -41 -4 -22 0 -38 4 -35 8
5 8 76 4 76 -4z m-2190 -10 c0 -8 -5 -12 -10 -9 -6 4 -8 11 -5 16 9 14 15 11
15 -7z m1937 -10 c-3 -3 -12 -4 -19 -1 -8 3 -5 6 6 6 11 1 17 -2 13 -5z m128
-15 c-4 -5 -13 -9 -22 -9 -13 0 -13 3 -3 15 13 15 35 11 25 -6z m88 -4 c21 6
22 6 3 -9 -26 -21 -8 -21 24 0 l25 16 -26 -24 c-14 -13 -24 -28 -22 -34 2 -5
-5 -10 -16 -10 -11 0 -19 7 -18 16 0 8 -2 29 -6 45 -6 24 -5 26 4 12 7 -12 17
-16 32 -12z m117 -25 c0 -5 -5 -10 -11 -10 -5 0 -7 5 -4 10 3 6 8 10 11 10 2
0 4 -4 4 -10z m-2420 -20 c0 -5 -4 -10 -10 -10 -5 0 -10 5 -10 10 0 6 5 10 10
10 6 0 10 -4 10 -10z m2124 -9 c3 -5 0 -14 -8 -20 -10 -9 -15 -8 -19 3 -9 22
15 37 27 17z m-4402 -17 c-3 -12 -53 -25 -65 -17 -12 7 32 31 52 28 9 -1 15
-6 13 -11z m4617 0 c-12 -15 -11 -16 8 -10 24 8 36 -5 27 -28 -9 -23 -19 -20
-38 9 -17 26 -14 45 6 45 6 0 5 -7 -3 -16z m-102 -30 c-3 -3 -12 -4 -19 -1 -8
3 -5 6 6 6 11 1 17 -2 13 -5z m-47 -19 c0 -8 -4 -15 -10 -15 -5 0 -10 7 -10
15 0 8 5 15 10 15 6 0 10 -7 10 -15z m95 -6 c10 -15 -1 -23 -20 -15 -9 3 -13
10 -10 16 8 13 22 13 30 -1z m-2025 -189 c0 -5 -7 -10 -15 -10 -8 0 -15 5 -15
10 0 6 7 10 15 10 8 0 15 -4 15 -10z m2224 -50 c30 0 85 -28 112 -55 11 -12
25 -24 30 -26 24 -10 86 -112 91 -150 6 -39 7 -41 34 -35 21 4 29 2 29 -8 0
-8 11 -17 25 -20 14 -4 31 -18 37 -31 6 -14 14 -25 17 -25 12 0 10 -43 -3 -55
-7 -8 -32 -12 -62 -11 -73 3 -169 61 -273 165 -99 99 -113 116 -140 168 -19
38 -19 38 2 68 35 48 49 56 65 34 7 -10 23 -19 36 -19z m-181 -108 c-2 -12 2
-22 7 -22 6 0 10 -7 10 -16 0 -28 23 -94 30 -89 5 3 11 -2 14 -11 4 -10 2 -13
-6 -8 -7 4 -8 3 -4 -4 4 -7 14 -12 22 -12 8 0 13 -4 9 -9 -3 -5 2 -16 10 -24
8 -9 15 -20 15 -26 0 -6 3 -10 8 -9 20 4 60 -23 66 -46 3 -14 13 -26 21 -26 7
0 17 -5 21 -12 5 -7 3 -8 -6 -3 -9 6 -11 4 -6 -4 5 -7 14 -10 22 -7 14 5 76
-60 99 -104 30 -59 26 -132 -8 -163 -23 -21 -56 -37 -78 -37 -15 0 -19 -5 -15
-15 3 -9 0 -15 -10 -15 -8 0 -13 -4 -10 -9 3 -5 -18 -9 -47 -9 -36 1 -67 9
-102 27 -68 35 -74 37 -47 15 21 -18 22 -20 7 -41 -12 -17 -26 -23 -55 -23
-21 0 -42 5 -45 10 -3 6 -17 7 -29 4 -16 -4 -25 0 -30 11 -3 10 -12 15 -21 11
-8 -3 -17 -1 -20 4 -4 6 -14 10 -23 10 -15 0 -15 -2 -2 -10 8 -5 11 -10 5 -10
-5 0 -4 -4 3 -9 21 -13 -25 -51 -60 -51 -40 0 -236 109 -221 123 3 4 12 2 19
-4 9 -7 14 -5 19 11 3 11 11 18 16 14 6 -3 31 -7 57 -9 26 -1 56 -6 67 -10 16
-5 17 -5 4 4 -19 12 -94 32 -129 34 -14 1 -34 10 -44 19 -11 10 -22 16 -24 13
-3 -3 7 -15 21 -28 15 -12 27 -25 27 -29 0 -9 -77 -5 -86 5 -11 11 -17 87 -7
87 5 0 9 10 10 21 1 12 8 29 16 38 92 109 141 159 187 189 30 19 109 90 175
157 117 120 153 143 148 97z m-2928 -81 c4 -13 12 -18 22 -14 11 4 14 2 9 -5
-4 -7 -13 -12 -19 -12 -29 -1 -38 -16 -27 -44 12 -31 20 -30 -80 -10 -23 5
-30 3 -30 -10 0 -9 -3 -16 -7 -17 -72 -5 -131 -13 -144 -19 -8 -5 -39 -10 -68
-11 -39 -2 -55 -7 -62 -21 -6 -11 -21 -18 -39 -18 -30 0 -48 14 -31 25 6 3 8
12 4 21 -4 12 3 15 38 14 60 -2 139 11 139 22 0 5 9 6 20 3 15 -5 20 -2 20 12
0 12 13 26 35 36 19 9 35 21 35 27 0 14 46 13 69 -2 24 -15 51 -4 51 22 0 28
56 29 65 1z m153 -31 c26 -24 27 -33 8 -49 -25 -21 -72 40 -49 62 10 11 18 8
41 -13z m-768 -104 c0 -8 -4 -17 -9 -21 -12 -7 -24 12 -16 25 9 15 25 12 25
-4z m664 -35 c3 -4 3 -11 0 -14 -8 -7 -44 4 -44 14 0 12 37 12 44 0z m3212
-13 c15 -13 35 -23 43 -23 9 0 18 -13 22 -32 8 -38 -2 -41 -56 -19 -37 16 -55
41 -52 74 2 28 7 27 43 0z m-3115 -16 c7 -19 5 -22 -15 -22 -27 0 -38 18 -22
37 15 17 27 11 37 -15z m229 -881 c0 -12 -29 -35 -36 -28 -11 10 5 37 21 37 8
0 15 -4 15 -9z m-292 -48 c-5 -26 -38 -29 -38 -4 0 15 6 21 21 21 14 0 19 -5
17 -17z m-478 -73 l18 -54 -34 -34 c-18 -18 -38 -31 -44 -27 -17 10 -12 114 7
146 10 16 21 28 26 26 5 -1 17 -27 27 -57z m400 -15 c0 -8 6 -15 13 -15 6 0 4
-5 -6 -11 -9 -5 -22 -7 -27 -4 -16 10 -12 45 5 45 8 0 15 -7 15 -15z"/>
<path d="M4300 10750 c0 -5 5 -10 10 -10 6 0 10 5 10 10 0 6 -4 10 -10 10 -5
0 -10 -4 -10 -10z"/>
<path d="M5175 10692 c2 -14 1 -21 -3 -17 -4 3 -7 12 -7 18 0 7 -18 12 -47 13
-26 0 -45 -3 -43 -7 3 -4 -8 -10 -25 -14 -16 -4 -32 -11 -35 -16 -4 -5 -17 -9
-31 -9 -13 0 -24 -6 -25 -12 0 -7 -4 -4 -8 7 -8 19 -8 19 -15 -2 -4 -13 -14
-23 -23 -23 -8 0 -13 -6 -10 -12 2 -7 10 -12 16 -10 6 1 11 -5 11 -13 0 -9 6
-12 15 -9 8 4 21 2 28 -3 6 -5 19 -9 27 -8 8 1 21 3 28 3 8 1 10 7 6 15 -6 9
-5 9 8 -1 12 -10 18 -9 28 3 7 8 18 14 24 14 6 -1 19 1 29 5 9 5 25 5 35 1 27
-12 74 -14 98 -5 15 6 29 4 43 -7 29 -20 34 -14 16 20 -13 26 -13 27 5 17 16
-8 18 -8 14 4 -3 8 -26 23 -51 32 -37 15 -42 19 -27 25 18 7 18 8 -1 10 -11 1
-35 3 -52 4 -29 1 -32 -2 -28 -23z"/>
<path d="M4240 10490 c-8 -5 -10 -10 -5 -10 6 0 17 5 25 10 8 5 11 10 5 10 -5
0 -17 -5 -25 -10z"/>
<path d="M5880 10465 c-13 -15 -7 -45 8 -45 8 0 32 42 32 55 0 11 -29 4 -40
-10z"/>
<path d="M5109 10466 c-3 -3 -21 -6 -40 -7 -18 -1 -50 -6 -69 -12 -19 -6 -41
-11 -49 -11 -8 -1 -24 -16 -35 -35 -11 -19 -15 -31 -8 -27 8 5 10 -1 6 -21 -4
-23 -1 -30 22 -40 34 -16 51 -16 56 -2 2 6 41 13 88 16 86 6 115 16 103 37 -4
6 0 5 9 -2 12 -9 18 -10 23 -2 4 7 16 10 26 7 11 -3 17 -1 13 4 -3 5 11 9 30
9 20 0 36 4 36 9 0 10 -30 25 -43 22 -5 -1 -6 3 -2 8 13 23 -146 68 -166 47z
m-76 -63 c2 -10 8 -26 12 -36 6 -15 2 -17 -39 -16 -53 3 -59 17 -18 48 33 25
38 26 45 4z"/>
<path d="M4229 10386 c-13 -6 -31 -17 -39 -25 -33 -32 -53 -101 -29 -101 5 0
8 -4 4 -9 -3 -6 3 -10 12 -11 10 0 27 -1 38 -2 24 -1 71 8 85 17 6 4 36 10 66
14 43 6 54 5 50 -5 -3 -8 0 -11 9 -7 8 3 12 10 8 16 -4 7 0 8 11 4 10 -4 20
-7 22 -7 3 0 2 -6 -2 -12 -4 -7 1 -6 12 3 10 9 24 15 29 13 6 -2 21 5 35 16
14 11 19 20 13 20 -7 0 -13 6 -13 14 0 8 -7 16 -15 20 -8 3 -14 11 -13 17 2 6
-3 14 -11 17 -9 3 -11 0 -6 -9 5 -8 -4 -3 -18 10 -16 14 -32 21 -42 17 -10 -3
-40 -9 -68 -12 -29 -4 -55 -8 -59 -10 -3 -2 -8 1 -10 8 -5 15 -38 17 -69 4z
m281 -57 c0 -9 -48 -24 -55 -17 -2 2 -2 14 1 25 5 19 9 20 30 11 13 -6 24 -15
24 -19z"/>
<path d="M4620 10307 c3 -29 -10 -67 -21 -67 -5 0 -4 -8 2 -19 7 -10 9 -26 6
-35 -4 -9 -7 -20 -8 -24 -1 -4 -12 -20 -25 -35 -34 -40 -18 -57 17 -18 15 17
31 31 36 30 19 -3 27 2 14 10 -12 8 -12 12 -2 25 7 8 10 20 6 25 -3 6 -2 19 3
28 5 10 12 30 16 45 5 23 3 26 -11 21 -12 -5 -15 -2 -10 9 3 10 0 19 -9 22
-11 4 -15 0 -14 -17z"/>
<path d="M5779 10245 c-11 -48 -10 -57 4 -73 25 -27 21 -89 -8 -146 -17 -33
-22 -53 -15 -60 13 -13 48 19 52 48 2 12 11 22 24 24 19 3 20 6 10 55 -6 29
-15 57 -19 64 -4 6 -3 14 3 18 26 16 0 125 -30 125 -5 0 -14 -25 -21 -55z"/>
<path d="M5952 10240 c0 -19 2 -27 5 -17 2 9 2 25 0 35 -3 9 -5 1 -5 -18z"/>
<path d="M4610 10110 c0 -5 -9 -19 -20 -30 -11 -11 -20 -29 -20 -40 0 -11 -4
-20 -9 -20 -10 0 -36 -58 -29 -66 3 -2 13 -2 22 2 19 7 59 84 44 84 -7 0 -7 5
1 13 6 8 9 16 6 19 -3 3 1 11 10 18 17 14 20 30 5 30 -5 0 -10 -4 -10 -10z"/>
<path d="M4982 9895 c0 -16 2 -22 5 -12 2 9 2 23 0 30 -3 6 -5 -1 -5 -18z"/>
<path d="M4808 9852 c-16 -9 -28 -20 -28 -23 0 -9 102 20 115 32 17 17 -59 9
-87 -9z"/>
<path d="M4561 9851 c-7 -5 -10 -14 -7 -20 4 -6 12 -9 17 -6 5 4 9 1 9 -4 0
-6 5 -11 10 -11 6 0 10 7 10 15 0 8 5 15 10 15 6 0 10 5 10 10 0 12 -40 13
-59 1z"/>
<path d="M5672 9741 c-7 -4 -16 -33 -19 -65 -3 -31 -10 -59 -14 -62 -5 -3 -9
-13 -9 -22 0 -9 -6 -29 -14 -44 -11 -21 -12 -28 -1 -32 7 -2 12 1 12 7 -1 25
28 77 40 73 10 -4 10 -1 0 15 -9 16 -9 21 1 27 6 5 11 19 11 33 -1 13 2 36 6
52 8 29 7 31 -13 18z"/>
<path d="M4517 9647 c-15 -5 -27 -13 -27 -18 0 -5 -7 -9 -15 -9 -19 0 -19 -27
0 -60 8 -14 19 -36 25 -50 23 -55 34 -70 47 -66 7 3 13 1 13 -4 0 -15 34 -12
56 6 18 14 18 14 -6 3 -20 -9 -23 -9 -13 1 6 7 34 13 62 13 28 0 51 3 51 7 0
5 -22 13 -50 20 -33 8 -50 17 -50 27 0 10 -6 13 -16 9 -22 -8 -60 17 -67 43
-4 16 0 21 14 21 10 0 19 7 19 15 0 8 7 15 15 15 8 0 15 -6 15 -12 0 -10 3 -9
9 1 6 9 18 11 42 6 40 -9 183 -9 250 0 30 4 49 3 54 -5 5 -8 10 -8 21 1 24 20
46 3 40 -32 -5 -32 -23 -52 -38 -43 -5 3 -15 -2 -24 -10 -9 -9 -20 -14 -24
-11 -5 3 -17 1 -27 -4 -10 -5 -27 -13 -38 -17 -19 -7 -19 -8 2 -11 12 -3 31 1
43 7 12 6 40 13 63 16 76 9 78 10 129 72 46 55 39 58 -173 57 -105 0 -193 3
-196 8 -2 4 -9 5 -14 2 -5 -4 -9 -2 -9 2 0 12 -149 12 -183 0z m535 -79 c-6
-6 -16 -8 -22 -6 -9 3 -7 9 6 22 13 13 19 15 22 6 2 -6 0 -16 -6 -22z"/>
<path d="M4772 9480 c10 -6 25 -7 40 -1 20 9 18 10 -17 10 -31 0 -36 -2 -23
-9z"/>
<path d="M5596 9445 c-3 -9 0 -15 9 -15 9 0 12 6 9 15 -4 8 -7 15 -9 15 -2 0
-5 -7 -9 -15z"/>
<path d="M5704 9254 c3 -9 6 -39 6 -66 0 -28 3 -49 6 -45 11 11 22 87 13 87
-5 0 -9 9 -9 20 0 11 -5 20 -11 20 -6 0 -8 -7 -5 -16z"/>
<path d="M5626 9004 c-5 -14 -4 -15 9 -4 17 14 19 20 6 20 -5 0 -12 -7 -15
-16z"/>
<path d="M3938 2223 c7 -3 16 -2 19 1 4 3 -2 6 -13 5 -11 0 -14 -3 -6 -6z"/>
<path d="M3669 2183 c-13 -16 -12 -17 4 -4 16 13 21 21 13 21 -2 0 -10 -8 -17
-17z"/>
<path d="M3664 2135 c-4 -8 -15 -15 -25 -15 -10 0 -19 -5 -19 -12 0 -6 -3 -8
-7 -4 -5 4 1 14 11 22 11 8 16 14 10 14 -5 0 -58 -51 -119 -114 -105 -109
-109 -114 -92 -131 18 -16 19 -16 32 2 13 17 14 17 15 1 0 -10 4 -18 10 -18
12 0 31 35 23 43 -3 4 0 13 7 22 7 8 10 15 7 15 -9 0 23 73 41 94 10 10 38 29
63 42 26 13 49 30 52 39 4 8 4 15 1 15 -2 0 -7 -7 -10 -15z"/>
<path d="M4676 2085 c4 -8 11 -15 16 -15 6 0 5 6 -2 15 -7 8 -14 15 -16 15 -2
0 -1 -7 2 -15z"/>
<path d="M4647 2084 c-3 -5 1 -15 9 -22 16 -14 18 -5 5 17 -5 7 -11 9 -14 5z"/>
<path d="M4594 2039 c-3 -6 -1 -16 5 -22 9 -9 10 -7 5 8 -7 18 -6 19 12 5 18
-14 18 -14 5 3 -16 20 -18 20 -27 6z"/>
<path d="M4727 1019 c-4 -15 -2 -19 9 -15 9 3 25 1 37 -6 20 -10 21 -10 8 6
-26 32 -48 38 -54 15z"/>
<path d="M4440 968 c34 -32 66 -45 136 -54 53 -6 58 -5 46 9 -21 25 -92 54
-152 62 l-55 7 25 -24z"/>
<path d="M1760 1340 c0 -5 5 -10 10 -10 6 0 10 5 10 10 0 6 -4 10 -10 10 -5 0
-10 -4 -10 -10z"/>
<path d="M1680 1316 c0 -10 28 -13 41 -5 10 6 7 9 -13 9 -16 0 -28 -2 -28 -4z"/>
</g>
</svg>
